<?xml version="1.0" encoding="UTF-8" standalone="no"?>
<!-- Created with Inkscape (http://www.inkscape.org/) -->

<svg
   xmlns:dc="http://purl.org/dc/elements/1.1/"
   xmlns:cc="http://creativecommons.org/ns#"
   xmlns:rdf="http://www.w3.org/1999/02/22-rdf-syntax-ns#"
   xmlns:svg="http://www.w3.org/2000/svg"
   xmlns="http://www.w3.org/2000/svg"
   xmlns:sodipodi="http://sodipodi.sourceforge.net/DTD/sodipodi-0.dtd"
   xmlns:inkscape="http://www.inkscape.org/namespaces/inkscape"
   width="102.26492"
   height="43.999828"
   viewBox="0 0 27.057592 11.641621"
   version="1.1"
   id="svg1070"
   inkscape:version="0.92.0 r15299"
   sodipodi:docname="rappi.svg">
  <defs
     id="defs1064" />
  <sodipodi:namedview
     id="base"
     pagecolor="#ffffff"
     bordercolor="#666666"
     borderopacity="1.0"
     inkscape:pageopacity="0.0"
     inkscape:pageshadow="2"
     inkscape:zoom="8.8579545"
     inkscape:cx="50.632457"
     inkscape:cy="21.499914"
     inkscape:document-units="mm"
     inkscape:current-layer="layer1"
     showgrid="false"
     fit-margin-top="0"
     fit-margin-left="0"
     fit-margin-right="0"
     fit-margin-bottom="0"
     units="px"
     inkscape:window-width="1280"
     inkscape:window-height="744"
     inkscape:window-x="-4"
     inkscape:window-y="-4"
     inkscape:window-maximized="1" />
  <metadata
     id="metadata1067">
    <rdf:RDF>
      <cc:Work
         rdf:about="">
        <dc:format>image/svg+xml</dc:format>
        <dc:type
           rdf:resource="http://purl.org/dc/dcmitype/StillImage" />
        <dc:title></dc:title>
      </cc:Work>
    </rdf:RDF>
  </metadata>
  <g
     inkscape:label="Layer 1"
     inkscape:groupmode="layer"
     id="layer1"
     transform="translate(0.92329014,-142.88023)">
    <g
       transform="translate(24.657766,-86.604092)"
       id="g1051">
      <path
         style="fill:#ff7175;stroke-width:0.26458332"
         inkscape:connector-curvature="0"
         class="cls-3"
         d="m -22.492067,236.56726 q -0.08202,0.2831 -0.153458,0.56885 l -0.156104,0.62177 c -0.04763,0.18257 -0.07938,0.33073 -0.0979,0.43657 a 0.42597916,0.42597916 0 0 1 -0.365125,0.34925 1.0980208,1.0980208 0 0 1 -0.550334,-0.0423 1.2911667,1.2911667 0 0 1 -0.513291,-0.31485 0.79374999,0.79374999 0 0 1 -0.238125,-0.58208 4.5667083,4.5667083 0 0 1 0.145521,-0.90488 c 0.09525,-0.4101 0.232833,-0.89958 0.407458,-1.44992 q 0.291042,-0.90222 0.624417,-1.78858 0.322791,-0.83079 0.701145,-1.65364 a 0.56885416,0.56885416 0 0 1 0.452438,-0.32544 3.4395833,3.4395833 0 0 1 1.166812,0.037 0.32014583,0.32014583 0 0 1 0.22225,0.4445 q -0.312208,0.68792 -0.582083,1.39435 -0.209021,0.5424 -0.404812,1.09009 a 0.04233333,0.04233333 0 0 0 0.05821,0.0529 4.1513124,4.1513124 0 0 0 0.502708,-0.2831 3.7041666,3.7041666 0 0 0 0.73025,-0.61119 3.0268333,3.0268333 0 0 0 0.529167,-0.78052 2.1484166,2.1484166 0 0 0 0.198437,-0.91281 1.1218333,1.1218333 0 0 0 -0.346604,-0.91281 1.4896041,1.4896041 0 0 0 -0.978958,-0.27517 2.3547916,2.3547916 0 0 0 -1.190625,0.3175 3.5612916,3.5612916 0 0 0 -0.936625,0.75142 3.7041666,3.7041666 0 0 0 -0.60325,0.94985 2.25425,2.25425 0 0 0 -0.211667,0.85725 0.34660416,0.34660416 0 0 1 -0.264583,0.34925 0.71437499,0.71437499 0 0 1 -0.470958,-0.0212 1.0107083,1.0107083 0 0 1 -0.423334,-0.34131 1.0900833,1.0900833 0 0 1 -0.206375,-0.69321 1.9182291,1.9182291 0 0 1 0.291042,-0.89429 3.7597291,3.7597291 0 0 1 0.833437,-0.98425 4.9847499,4.9847499 0 0 1 1.36525,-0.81492 4.8789166,4.8789166 0 0 1 1.87325,-0.34131 5.1990624,5.1990624 0 0 1 1.185334,0.12436 3.7041666,3.7041666 0 0 1 1.058333,0.41539 2.4579791,2.4579791 0 0 1 0.743479,0.70644 1.6536458,1.6536458 0 0 1 0.296334,0.97367 2.38125,2.38125 0 0 1 -0.264584,1.10066 3.1988125,3.1988125 0 0 1 -0.701146,0.90223 4.5719999,4.5719999 0 0 1 -1.023937,0.69056 6.7653957,6.7653957 0 0 1 -1.016,0.41011 0.03704167,0.03704167 0 0 0 -0.0291,0.0423 c 0,0.17463 0.02117,0.34661 0.03704,0.51329 0.01588,0.16669 0.04763,0.37571 0.07937,0.55298 0.03175,0.17727 0.06879,0.34132 0.113771,0.50271 a 5.0694166,5.0694166 0 0 0 0.193146,0.56886 3.9872708,3.9872708 0 0 0 0.198438,0.37835 3.2755416,3.2755416 0 0 0 0.206375,0.33073 2.7569583,2.7569583 0 0 0 0.224895,0.28046 2.38125,2.38125 0 0 0 0.240771,0.22754 2.0875625,2.0875625 0 0 0 0.264584,0.17992 1.8520833,1.8520833 0 0 0 0.833437,0.26458 2.0187708,2.0187708 0 0 0 0.301625,0 2.2674791,2.2674791 0 0 0 0.309563,-0.0635 2.6299583,2.6299583 0 0 0 0.325437,-0.0979 3.3443333,3.3443333 0 0 0 0.468313,-0.2196 0.31485416,0.31485416 0 0 1 0.410104,0.0873 0.30691666,0.30691666 0 0 1 -0.04763,0.41275 6.6754374,6.6754374 0 0 1 -0.60325,0.46831 c -0.132292,0.0926 -0.264584,0.17727 -0.402167,0.26459 l -0.209021,0.11112 a 4.1539583,4.1539583 0 0 1 -0.41275,0.17992 3.5216041,3.5216041 0 0 1 -0.407458,0.12435 3.0506458,3.0506458 0 0 1 -0.399521,0.0688 2.778125,2.778125 0 0 1 -0.388937,0 2.5188333,2.5188333 0 0 1 -0.555625,-0.0873 2.428875,2.428875 0 0 1 -0.510646,-0.20637 2.5611666,2.5611666 0 0 1 -0.309563,-0.19844 2.7728333,2.7728333 0 0 1 -0.232833,-0.19579 3.0532916,3.0532916 0 0 1 -0.264583,-0.26459 3.4395833,3.4395833 0 0 1 -0.232834,-0.3122 3.96875,3.96875 0 0 1 -0.195791,-0.35984 c -0.0635,-0.12171 -0.124355,-0.25135 -0.177271,-0.38364 -0.05292,-0.13229 -0.105834,-0.26459 -0.150813,-0.4154 -0.04498,-0.15081 -0.08731,-0.29633 -0.121708,-0.44714 -0.0344,-0.15082 -0.06879,-0.3175 -0.0926,-0.47625 -0.02381,-0.15875 -0.04233,-0.29369 -0.05821,-0.44186 a 0.04233333,0.04233333 0 0 0 -0.08202,0"
         id="path1025" />
      <path
         id="path1029"
         d="m 1.333662,230.79141 a 1.1853333,1.1853333 0 1 1 -1.17474999,-1.17475 1.1800417,1.1800417 0 0 1 1.18533329,1.17475 m -5.6303332,3.21733 a 6.4584791,6.4584791 0 0 1 -0.174625,0.70644 7.9983541,7.9983541 0 0 1 -0.301625,0.8255 q -0.1852084,0.40216 -0.4021667,0.79375 a 5.0032708,5.0032708 0 0 1 -0.396875,0.60325 1.7753541,1.7753541 0 0 1 -0.3466041,0.35189 0.26458333,0.26458333 0 0 1 -0.1375834,0.0609 h -0.018521 c -0.013229,0 -0.055563,-0.0344 -0.076729,-0.17727 a 1.6959791,1.6959791 0 0 1 0.029104,-0.50536 6.1118749,6.1118749 0 0 1 0.1852083,-0.72496 7.8396041,7.8396041 0 0 1 0.301625,-0.82285 6.8791666,6.8791666 0 0 1 0.3942292,-0.79375 5.0085624,5.0085624 0 0 1 0.4048125,-0.59796 1.8229791,1.8229791 0 0 1 0.3466041,-0.3466 0.26458333,0.26458333 0 0 1 0.1375834,-0.0609 h 0.00265 c 0,0 0.055562,0.037 0.076729,0.17727 a 1.6721666,1.6721666 0 0 1 -0.029104,0.49742 m -5.3101874,0 a 6.4558333,6.4558333 0 0 1 -0.174625,0.70644 7.9692499,7.9692499 0 0 1 -0.296333,0.83873 q -0.185209,0.40216 -0.402167,0.79375 a 4.9662291,4.9662291 0 0 1 -0.396875,0.60325 1.7541875,1.7541875 0 0 1 -0.346604,0.34131 0.26458333,0.26458333 0 0 1 -0.137584,0.0609 h -0.01852 c 0,0 -0.05821,-0.0344 -0.07673,-0.17727 a 1.7065625,1.7065625 0 0 1 0.02646,-0.50535 6.1965416,6.1965416 0 0 1 0.174625,-0.71173 7.8237291,7.8237291 0 0 1 0.296333,-0.8255 6.8791666,6.8791666 0 0 1 0.391583,-0.79375 5.1091041,5.1091041 0 0 1 0.402167,-0.58473 1.8520833,1.8520833 0 0 1 0.3466043,-0.3466 0.26458333,0.26458333 0 0 1 0.1375833,-0.0609 h 0.018521 c 0,0 0.058208,0.037 0.076729,0.17727 a 1.6748125,1.6748125 0 0 1 -0.026458,0.49742 m -5.7467506,0 a 5.4874583,5.4874583 0 0 1 -0.132291,0.71173 6.5669583,6.5669583 0 0 1 -0.264584,0.82021 q -0.156104,0.39952 -0.351895,0.79375 a 4.2095208,4.2095208 0 0 1 -0.359834,0.59531 1.6774583,1.6774583 0 0 1 -0.312208,0.32544 0.238125,0.238125 0 0 1 -0.129646,0.0609 h -0.01852 c -0.01323,0 -0.05821,-0.037 -0.08202,-0.17992 a 2.0055416,2.0055416 0 0 1 0,-0.5027 4.7175208,4.7175208 0 0 1 0.124355,-0.7038 6.5484374,6.5484374 0 0 1 0.264583,-0.8202 q 0.156104,-0.40217 0.351896,-0.79375 a 4.5402499,4.5402499 0 0 1 0.362479,-0.60061 1.6245416,1.6245416 0 0 1 0.322792,-0.34925 0.24077083,0.24077083 0 0 1 0.129645,-0.0609 h -0.0026 c 0.01323,0 0.0635,0.037 0.0926,0.18256 a 1.6853958,1.6853958 0 0 1 0,0.50271 m 16.4041665,1.52929 A 0.34395833,0.34395833 0 0 0 0.7622103,235.374 0.32279166,0.32279166 0 0 0 0.49762697,235.51158 c -0.0687917,0.10054 -0.15610416,0.21961 -0.26458333,0.35454 a 4.7624999,4.7624999 0 0 1 -0.33866666,0.42863 3.921125,3.921125 0 0 1 -0.35983333,0.33867 0.40745833,0.40745833 0 0 1 -0.238125,0.11641 c -0.0291042,0 -0.0873125,0 -0.10054166,-0.14816 a 1.9473333,1.9473333 0 0 1 0.0687917,-0.59796 7.1014166,7.1014166 0 0 1 0.26458333,-0.82021 q 0.29897917,-0.79375 0.64558333,-1.5584 c 0.0873125,-0.19579 0.142875,-0.32279 0.1666875,-0.37835 a 0.41274999,0.41274999 0 0 0 -0.0740833,-0.45773 0.86254166,0.86254166 0 0 0 -0.43920833,-0.26458 1.2117917,1.2117917 0 0 0 -0.56885416,0 0.76199999,0.76199999 0 0 0 -0.50006246,0.37041 8.1729791,8.1729791 0 0 0 -0.41275,0.79375 q -0.2645833,0.58738 -0.4815417,1.19592 c -0.092604,0.26458 -0.1772708,0.52917 -0.2645833,0.79375 a 2.2621875,2.2621875 0 0 1 -0.7540625,1.13506 4.8021874,4.8021874 0 0 1 -0.3915833,0.29634 q -0.092604,0.0609 -0.1905,0.11377 a 0.02116667,0.02116667 0 0 1 -0.026458,-0.0318 q 0.1640416,-0.21432 0.3227916,-0.46302 a 6.4505416,6.4505416 0 0 0 0.587375,-1.2065 5.6594374,5.6594374 0 0 0 0.3413125,-1.32292 2.8866041,2.8866041 0 0 0 -0.050271,-1.03981 1.3229166,1.3229166 0 0 0 -0.396875,-0.68792 1.0583333,1.0583333 0 0 0 -0.7117292,-0.26458 1.6430625,1.6430625 0 0 0 -0.8969375,0.26458 3.5533541,3.5533541 0 0 0 -0.5027083,0.38629 c 0,0 -0.023813,0 -0.03175,0 a 0.64293749,0.64293749 0 0 0 -0.1375833,-0.15081 1.0239375,1.0239375 0 0 0 -0.4630208,-0.21167 1.0768542,1.0768542 0 0 0 -0.5291667,0.037 0.68791666,0.68791666 0 0 0 -0.4180417,0.37836 q -0.2883958,0.62441 -0.5291666,1.26471 -0.3360209,0.8202 -0.6006042,1.6457 a 2.2648333,2.2648333 0 0 1 -0.79375,1.08215 c -0.09525,0.0714 -0.1931458,0.14288 -0.2963333,0.20638 q -0.092604,0.0609 -0.1905,0.11377 a 0.02116667,0.02116667 0 0 1 -0.026458,-0.0318 q 0.1719791,-0.2249 0.3227916,-0.46302 a 6.4505416,6.4505416 0 0 0 0.587375,-1.2065 5.6594374,5.6594374 0 0 0 0.3413125,-1.32292 2.8866041,2.8866041 0 0 0 -0.037042,-1.03981 1.3229166,1.3229166 0 0 0 -0.396875,-0.68792 1.0583333,1.0583333 0 0 0 -0.7117291,-0.26458 1.6457083,1.6457083 0 0 0 -0.8969375,0.26458 3.571875,3.571875 0 0 0 -0.5027088,0.38629 c 0,0 -0.02381,0 -0.03175,0 a 0.64293749,0.64293749 0 0 0 -0.137583,-0.15081 1.0212917,1.0212917 0 0 0 -0.463021,-0.21167 1.0768542,1.0768542 0 0 0 -0.529167,0.037 0.68791666,0.68791666 0 0 0 -0.420687,0.37836 q -0.288396,0.62441 -0.529167,1.26471 -0.264583,0.68262 -0.502708,1.37583 a 2.174875,2.174875 0 0 1 -0.5715,0.89694 c -0.06879,0.0661 -0.137584,0.127 -0.203729,0.18256 a 0.40745833,0.40745833 0 0 1 -0.238125,0.11642 c -0.03175,0 -0.08731,0 -0.100542,-0.14817 a 1.9420416,1.9420416 0 0 1 0.06879,-0.59796 7.0088124,7.0088124 0 0 1 0.264583,-0.82021 c 0.113771,-0.29898 0.227542,-0.58473 0.341312,-0.8546 0.113771,-0.26988 0.216959,-0.508 0.304271,-0.70379 q 0.08731,-0.18786 0.164042,-0.37836 a 0.41010416,0.41010416 0 0 0 -0.07408,-0.45773 0.86518749,0.86518749 0 0 0 -0.447146,-0.26458 1.2117917,1.2117917 0 0 0 -0.568854,0 0.76464582,0.76464582 0 0 0 -0.497417,0.36513 l -0.07673,0.12964 a 0.02116667,0.02116667 0 0 1 -0.03969,0 1.1377083,1.1377083 0 0 0 -0.111125,-0.30162 0.88899999,0.88899999 0 0 0 -0.346604,-0.34925 1.0821458,1.0821458 0 0 0 -0.558271,-0.1323 2.38125,2.38125 0 0 0 -1.5875,0.71173 c -0.515937,0.46302 -0.941916,1.20386 -1.27,2.20134 a 5.5192083,5.5192083 0 0 0 -0.264583,1.32291 2.8707291,2.8707291 0 0 0 0.0979,1.02659 1.3996458,1.3996458 0 0 0 0.433916,0.67998 1.1059583,1.1059583 0 0 0 0.722313,0.26458 1.61925,1.61925 0 0 0 0.582083,-0.10583 2.19075,2.19075 0 0 0 0.484188,-0.26459 2.1616458,2.1616458 0 0 0 0.309562,-0.26458 0.127,0.127 0 0 1 0.214313,0.0503 0.99483332,0.99483332 0 0 0 0.129646,0.26458 0.73289582,0.73289582 0 0 0 0.645583,0.29898 1.6298333,1.6298333 0 0 0 0.965729,-0.35454 5.3736874,5.3736874 0 0 0 0.436563,-0.35719 0.04233333,0.04233333 0 0 1 0.06879,0.0423 c -0.08202,0.26458 -0.156104,0.52916 -0.22225,0.75671 -0.111125,0.39422 -0.1905,0.73818 -0.269875,1.00277 a 2.7834166,2.7834166 0 0 0 -0.103187,0.52916 0.82814582,0.82814582 0 0 0 0.211666,0.57679 1.1562292,1.1562292 0 0 0 0.470959,0.3175 1.016,1.016 0 0 0 0.336021,0.0609 0.79374999,0.79374999 0 0 0 0.171979,-0.0185 0.41274999,0.41274999 0 0 0 0.333375,-0.34661 v 0 c 0.01852,-0.12435 0.05292,-0.29104 0.105833,-0.50006 0.05292,-0.20902 0.116417,-0.46037 0.1905,-0.7276 0.07408,-0.26723 0.156104,-0.56357 0.264583,-0.90752 q 0.06879,-0.23813 0.145521,-0.50007 a 0.04233333,0.04233333 0 0 1 0.07673,0 1.1641667,1.1641667 0 0 0 0.07673,0.11642 0.89693749,0.89693749 0 0 0 0.759355,0.32015 h 0.206375 a 3.8443958,3.8443958 0 0 0 1.4128751,-0.26459 5.7017708,5.7017708 0 0 0 1.1244792,-0.58737 0.04233333,0.04233333 0 0 1 0.0635,0.0476 q -0.1349375,0.43921 -0.2645833,0.87842 -0.1455209,0.50535 -0.2645834,1.01335 a 2.7992916,2.7992916 0 0 0 -0.1031875,0.52917 0.82814582,0.82814582 0 0 0 0.2116667,0.57679 1.1509375,1.1509375 0 0 0 0.4736041,0.30956 1.016,1.016 0 0 0 0.333375,0.0609 0.79374999,0.79374999 0 0 0 0.174625,-0.0185 0.41274999,0.41274999 0 0 0 0.3307292,-0.34661 v 0 c 0.018521,-0.12435 0.052917,-0.29104 0.1058333,-0.50006 0.052917,-0.20902 0.1164167,-0.46037 0.1905,-0.7276 0.074083,-0.26723 0.15875,-0.56357 0.2645834,-0.90752 q 0.068792,-0.23813 0.1455208,-0.50007 a 0.04233333,0.04233333 0 0 1 0.076729,0 1.1641667,1.1641667 0 0 0 0.076729,0.11642 0.89429166,0.89429166 0 0 0 0.7593542,0.32015 h 0.206375 a 3.8470416,3.8470416 0 0 0 1.412875,-0.26459 5.5985833,5.5985833 0 0 0 1.2964583,-0.70908 l 0.1825625,-0.14288 a 0.04233333,0.04233333 0 0 1 0.068792,0.0344 v 0.045 a 1.2594167,1.2594167 0 0 0 0.1878542,0.72496 0.73289582,0.73289582 0 0 0 0.6455833,0.29898 1.6615833,1.6615833 0 0 0 0.94985416,-0.3519 5.4689374,5.4689374 0 0 0 0.86518749,-0.79375 8.4111041,8.4111041 0 0 0 0.68527082,-0.86783 q 0.20372917,-0.29634 0.39952083,-0.60061 a 0.26458333,0.26458333 0 0 0 0,-0.2831"
         class="cls-3"
         inkscape:connector-curvature="0"
         style="fill:#ff7175;stroke-width:0.26458332" />
    </g>
  </g>
</svg>
